<mxfile host="app.diagrams.net" agent="Mozilla/5.0 (Macintosh; Intel Mac OS X 10_15_7) AppleWebKit/537.36 (KHTML, like Gecko) Chrome/130.0.0.0 Safari/537.36" version="24.8.0">
  <diagram name="Page-1" id="a2HWIedEcQ-l7AJ4iUVC">
    <mxGraphModel dx="1224" dy="624" grid="1" gridSize="10" guides="1" tooltips="1" connect="1" arrows="1" fold="1" page="1" pageScale="1" pageWidth="850" pageHeight="1100" math="0" shadow="0">
      <root>
        <mxCell id="0" />
        <mxCell id="1" parent="0" />
        <mxCell id="ITfLsWVSqHhZjFc9txPf-39" value="Start" style="whiteSpace=wrap;strokeWidth=2;" vertex="1" parent="1">
          <mxGeometry x="398" y="20" width="95" height="49" as="geometry" />
        </mxCell>
        <mxCell id="ITfLsWVSqHhZjFc9txPf-40" value="User Login" style="whiteSpace=wrap;strokeWidth=2;" vertex="1" parent="1">
          <mxGeometry x="378" y="119" width="135" height="49" as="geometry" />
        </mxCell>
        <mxCell id="ITfLsWVSqHhZjFc9txPf-41" value="Identify User Role" style="rhombus;strokeWidth=2;whiteSpace=wrap;" vertex="1" parent="1">
          <mxGeometry x="357" y="217" width="176" height="176" as="geometry" />
        </mxCell>
        <mxCell id="ITfLsWVSqHhZjFc9txPf-42" value="Organizer: Create Event" style="whiteSpace=wrap;strokeWidth=2;" vertex="1" parent="1">
          <mxGeometry x="329" y="466" width="233" height="49" as="geometry" />
        </mxCell>
        <mxCell id="ITfLsWVSqHhZjFc9txPf-43" value="Participant: View Events" style="whiteSpace=wrap;strokeWidth=2;" vertex="1" parent="1">
          <mxGeometry x="27" y="587" width="235" height="49" as="geometry" />
        </mxCell>
        <mxCell id="ITfLsWVSqHhZjFc9txPf-44" value="Admin: Access Reports" style="whiteSpace=wrap;strokeWidth=2;" vertex="1" parent="1">
          <mxGeometry x="749" y="685" width="220" height="49" as="geometry" />
        </mxCell>
        <mxCell id="ITfLsWVSqHhZjFc9txPf-45" value="Set Event Details" style="whiteSpace=wrap;strokeWidth=2;" vertex="1" parent="1">
          <mxGeometry x="354" y="587" width="182" height="49" as="geometry" />
        </mxCell>
        <mxCell id="ITfLsWVSqHhZjFc9txPf-46" value="Submit Event for Approval" style="whiteSpace=wrap;strokeWidth=2;" vertex="1" parent="1">
          <mxGeometry x="322" y="685" width="247" height="49" as="geometry" />
        </mxCell>
        <mxCell id="ITfLsWVSqHhZjFc9txPf-47" value="Send Notifications to Participants" style="whiteSpace=wrap;strokeWidth=2;" vertex="1" parent="1">
          <mxGeometry x="340" y="784" width="210" height="66" as="geometry" />
        </mxCell>
        <mxCell id="ITfLsWVSqHhZjFc9txPf-48" value="Event Successfully Created" style="whiteSpace=wrap;strokeWidth=2;" vertex="1" parent="1">
          <mxGeometry x="319" y="909" width="253" height="49" as="geometry" />
        </mxCell>
        <mxCell id="ITfLsWVSqHhZjFc9txPf-49" value="Register for Event" style="whiteSpace=wrap;strokeWidth=2;" vertex="1" parent="1">
          <mxGeometry x="50" y="685" width="188" height="49" as="geometry" />
        </mxCell>
        <mxCell id="ITfLsWVSqHhZjFc9txPf-50" value="Confirm Registration" style="whiteSpace=wrap;strokeWidth=2;" vertex="1" parent="1">
          <mxGeometry x="41" y="792" width="207" height="49" as="geometry" />
        </mxCell>
        <mxCell id="ITfLsWVSqHhZjFc9txPf-51" value="Receive Event Information" style="whiteSpace=wrap;strokeWidth=2;" vertex="1" parent="1">
          <mxGeometry x="20" y="909" width="249" height="49" as="geometry" />
        </mxCell>
        <mxCell id="ITfLsWVSqHhZjFc9txPf-52" value="Attend and Participate in Event" style="whiteSpace=wrap;strokeWidth=2;" vertex="1" parent="1">
          <mxGeometry x="24" y="1016" width="241" height="66" as="geometry" />
        </mxCell>
        <mxCell id="ITfLsWVSqHhZjFc9txPf-53" value="Generate Event Reports" style="whiteSpace=wrap;strokeWidth=2;" vertex="1" parent="1">
          <mxGeometry x="744" y="792" width="231" height="49" as="geometry" />
        </mxCell>
        <mxCell id="ITfLsWVSqHhZjFc9txPf-54" value="View Feedback Reports" style="whiteSpace=wrap;strokeWidth=2;" vertex="1" parent="1">
          <mxGeometry x="614" y="1025" width="226" height="49" as="geometry" />
        </mxCell>
        <mxCell id="ITfLsWVSqHhZjFc9txPf-55" value="View Participation Statistics" style="whiteSpace=wrap;strokeWidth=2;" vertex="1" parent="1">
          <mxGeometry x="838" y="900" width="191" height="66" as="geometry" />
        </mxCell>
        <mxCell id="ITfLsWVSqHhZjFc9txPf-56" value="Manage Event Feedback" style="whiteSpace=wrap;strokeWidth=2;" vertex="1" parent="1">
          <mxGeometry x="329" y="1025" width="232" height="49" as="geometry" />
        </mxCell>
        <mxCell id="ITfLsWVSqHhZjFc9txPf-57" value="End" style="whiteSpace=wrap;strokeWidth=2;" vertex="1" parent="1">
          <mxGeometry x="683" y="1132" width="86" height="49" as="geometry" />
        </mxCell>
        <mxCell id="ITfLsWVSqHhZjFc9txPf-58" value="Export Reports" style="whiteSpace=wrap;strokeWidth=2;" vertex="1" parent="1">
          <mxGeometry x="909" y="1025" width="165" height="49" as="geometry" />
        </mxCell>
        <mxCell id="ITfLsWVSqHhZjFc9txPf-59" value="" style="curved=1;startArrow=none;endArrow=block;exitX=0.5;exitY=0.99;entryX=0.5;entryY=-0.01;rounded=0;" edge="1" parent="1" source="ITfLsWVSqHhZjFc9txPf-39" target="ITfLsWVSqHhZjFc9txPf-40">
          <mxGeometry relative="1" as="geometry">
            <Array as="points" />
          </mxGeometry>
        </mxCell>
        <mxCell id="ITfLsWVSqHhZjFc9txPf-60" value="" style="curved=1;startArrow=none;endArrow=block;exitX=0.5;exitY=0.98;entryX=0.5;entryY=0;rounded=0;" edge="1" parent="1" source="ITfLsWVSqHhZjFc9txPf-40" target="ITfLsWVSqHhZjFc9txPf-41">
          <mxGeometry relative="1" as="geometry">
            <Array as="points" />
          </mxGeometry>
        </mxCell>
        <mxCell id="ITfLsWVSqHhZjFc9txPf-61" value="Organizer" style="curved=1;startArrow=none;endArrow=block;exitX=0.5;exitY=1;entryX=0.5;entryY=-0.01;rounded=0;" edge="1" parent="1" source="ITfLsWVSqHhZjFc9txPf-41" target="ITfLsWVSqHhZjFc9txPf-42">
          <mxGeometry relative="1" as="geometry">
            <Array as="points" />
          </mxGeometry>
        </mxCell>
        <mxCell id="ITfLsWVSqHhZjFc9txPf-62" value="Participant" style="curved=1;startArrow=none;endArrow=block;exitX=0;exitY=0.71;entryX=0.5;entryY=-0.01;rounded=0;" edge="1" parent="1" source="ITfLsWVSqHhZjFc9txPf-41" target="ITfLsWVSqHhZjFc9txPf-43">
          <mxGeometry relative="1" as="geometry">
            <Array as="points">
              <mxPoint x="144" y="429" />
            </Array>
          </mxGeometry>
        </mxCell>
        <mxCell id="ITfLsWVSqHhZjFc9txPf-63" value="Admin" style="curved=1;startArrow=none;endArrow=block;exitX=1;exitY=0.65;entryX=0.5;entryY=0;rounded=0;" edge="1" parent="1" source="ITfLsWVSqHhZjFc9txPf-41" target="ITfLsWVSqHhZjFc9txPf-44">
          <mxGeometry relative="1" as="geometry">
            <Array as="points">
              <mxPoint x="859" y="429" />
            </Array>
          </mxGeometry>
        </mxCell>
        <mxCell id="ITfLsWVSqHhZjFc9txPf-64" value="" style="curved=1;startArrow=none;endArrow=block;exitX=0.5;exitY=0.98;entryX=0.5;entryY=-0.01;rounded=0;" edge="1" parent="1" source="ITfLsWVSqHhZjFc9txPf-42" target="ITfLsWVSqHhZjFc9txPf-45">
          <mxGeometry relative="1" as="geometry">
            <Array as="points" />
          </mxGeometry>
        </mxCell>
        <mxCell id="ITfLsWVSqHhZjFc9txPf-65" value="" style="curved=1;startArrow=none;endArrow=block;exitX=0.5;exitY=0.98;entryX=0.5;entryY=0;rounded=0;" edge="1" parent="1" source="ITfLsWVSqHhZjFc9txPf-45" target="ITfLsWVSqHhZjFc9txPf-46">
          <mxGeometry relative="1" as="geometry">
            <Array as="points" />
          </mxGeometry>
        </mxCell>
        <mxCell id="ITfLsWVSqHhZjFc9txPf-66" value="" style="curved=1;startArrow=none;endArrow=block;exitX=0.5;exitY=0.99;entryX=0.5;entryY=0;rounded=0;" edge="1" parent="1" source="ITfLsWVSqHhZjFc9txPf-46" target="ITfLsWVSqHhZjFc9txPf-47">
          <mxGeometry relative="1" as="geometry">
            <Array as="points" />
          </mxGeometry>
        </mxCell>
        <mxCell id="ITfLsWVSqHhZjFc9txPf-67" value="" style="curved=1;startArrow=none;endArrow=block;exitX=0.5;exitY=1;entryX=0.5;entryY=-0.01;rounded=0;" edge="1" parent="1" source="ITfLsWVSqHhZjFc9txPf-47" target="ITfLsWVSqHhZjFc9txPf-48">
          <mxGeometry relative="1" as="geometry">
            <Array as="points" />
          </mxGeometry>
        </mxCell>
        <mxCell id="ITfLsWVSqHhZjFc9txPf-68" value="" style="curved=1;startArrow=none;endArrow=block;exitX=0.5;exitY=0.98;entryX=0.5;entryY=0;rounded=0;" edge="1" parent="1" source="ITfLsWVSqHhZjFc9txPf-43" target="ITfLsWVSqHhZjFc9txPf-49">
          <mxGeometry relative="1" as="geometry">
            <Array as="points" />
          </mxGeometry>
        </mxCell>
        <mxCell id="ITfLsWVSqHhZjFc9txPf-69" value="" style="curved=1;startArrow=none;endArrow=block;exitX=0.5;exitY=0.99;entryX=0.5;entryY=0.01;rounded=0;" edge="1" parent="1" source="ITfLsWVSqHhZjFc9txPf-49" target="ITfLsWVSqHhZjFc9txPf-50">
          <mxGeometry relative="1" as="geometry">
            <Array as="points" />
          </mxGeometry>
        </mxCell>
        <mxCell id="ITfLsWVSqHhZjFc9txPf-70" value="" style="curved=1;startArrow=none;endArrow=block;exitX=0.5;exitY=1;entryX=0.5;entryY=-0.01;rounded=0;" edge="1" parent="1" source="ITfLsWVSqHhZjFc9txPf-50" target="ITfLsWVSqHhZjFc9txPf-51">
          <mxGeometry relative="1" as="geometry">
            <Array as="points" />
          </mxGeometry>
        </mxCell>
        <mxCell id="ITfLsWVSqHhZjFc9txPf-71" value="" style="curved=1;startArrow=none;endArrow=block;exitX=0.5;exitY=0.98;entryX=0.5;entryY=0;rounded=0;" edge="1" parent="1" source="ITfLsWVSqHhZjFc9txPf-51" target="ITfLsWVSqHhZjFc9txPf-52">
          <mxGeometry relative="1" as="geometry">
            <Array as="points" />
          </mxGeometry>
        </mxCell>
        <mxCell id="ITfLsWVSqHhZjFc9txPf-72" value="" style="curved=1;startArrow=none;endArrow=block;exitX=0.5;exitY=0.99;entryX=0.5;entryY=0.01;rounded=0;" edge="1" parent="1" source="ITfLsWVSqHhZjFc9txPf-44" target="ITfLsWVSqHhZjFc9txPf-53">
          <mxGeometry relative="1" as="geometry">
            <Array as="points" />
          </mxGeometry>
        </mxCell>
        <mxCell id="ITfLsWVSqHhZjFc9txPf-73" value="" style="curved=1;startArrow=none;endArrow=block;exitX=0.26;exitY=1;entryX=0.5;entryY=-0.01;rounded=0;" edge="1" parent="1" source="ITfLsWVSqHhZjFc9txPf-53" target="ITfLsWVSqHhZjFc9txPf-54">
          <mxGeometry relative="1" as="geometry">
            <Array as="points">
              <mxPoint x="726" y="875" />
            </Array>
          </mxGeometry>
        </mxCell>
        <mxCell id="ITfLsWVSqHhZjFc9txPf-74" value="" style="curved=1;startArrow=none;endArrow=block;exitX=0.63;exitY=1;entryX=0.5;entryY=0;rounded=0;" edge="1" parent="1" source="ITfLsWVSqHhZjFc9txPf-53" target="ITfLsWVSqHhZjFc9txPf-55">
          <mxGeometry relative="1" as="geometry">
            <Array as="points">
              <mxPoint x="933" y="875" />
            </Array>
          </mxGeometry>
        </mxCell>
        <mxCell id="ITfLsWVSqHhZjFc9txPf-75" value="" style="curved=1;startArrow=none;endArrow=block;exitX=0.5;exitY=0.98;entryX=0.5;entryY=-0.01;rounded=0;" edge="1" parent="1" source="ITfLsWVSqHhZjFc9txPf-48" target="ITfLsWVSqHhZjFc9txPf-56">
          <mxGeometry relative="1" as="geometry">
            <Array as="points" />
          </mxGeometry>
        </mxCell>
        <mxCell id="ITfLsWVSqHhZjFc9txPf-76" value="" style="curved=1;startArrow=none;endArrow=block;exitX=0.5;exitY=1;entryX=0;entryY=0.42;rounded=0;" edge="1" parent="1" source="ITfLsWVSqHhZjFc9txPf-52" target="ITfLsWVSqHhZjFc9txPf-57">
          <mxGeometry relative="1" as="geometry">
            <Array as="points">
              <mxPoint x="144" y="1107" />
            </Array>
          </mxGeometry>
        </mxCell>
        <mxCell id="ITfLsWVSqHhZjFc9txPf-77" value="" style="curved=1;startArrow=none;endArrow=block;exitX=0.5;exitY=0.98;entryX=0;entryY=0.34;rounded=0;" edge="1" parent="1" source="ITfLsWVSqHhZjFc9txPf-56" target="ITfLsWVSqHhZjFc9txPf-57">
          <mxGeometry relative="1" as="geometry">
            <Array as="points">
              <mxPoint x="445" y="1107" />
            </Array>
          </mxGeometry>
        </mxCell>
        <mxCell id="ITfLsWVSqHhZjFc9txPf-78" value="" style="curved=1;startArrow=none;endArrow=block;exitX=0.5;exitY=0.98;entryX=0.51;entryY=0;rounded=0;" edge="1" parent="1" source="ITfLsWVSqHhZjFc9txPf-54" target="ITfLsWVSqHhZjFc9txPf-57">
          <mxGeometry relative="1" as="geometry">
            <Array as="points" />
          </mxGeometry>
        </mxCell>
        <mxCell id="ITfLsWVSqHhZjFc9txPf-79" value="" style="curved=1;startArrow=none;endArrow=block;exitX=0.32;exitY=1;entryX=1.01;entryY=0.2;rounded=0;" edge="1" parent="1" source="ITfLsWVSqHhZjFc9txPf-55" target="ITfLsWVSqHhZjFc9txPf-57">
          <mxGeometry relative="1" as="geometry">
            <Array as="points">
              <mxPoint x="874" y="991" />
              <mxPoint x="874" y="1107" />
            </Array>
          </mxGeometry>
        </mxCell>
        <mxCell id="ITfLsWVSqHhZjFc9txPf-80" value="" style="curved=1;startArrow=none;endArrow=block;exitX=0.67;exitY=1;entryX=0.5;entryY=-0.01;rounded=0;" edge="1" parent="1" source="ITfLsWVSqHhZjFc9txPf-55" target="ITfLsWVSqHhZjFc9txPf-58">
          <mxGeometry relative="1" as="geometry">
            <Array as="points">
              <mxPoint x="992" y="991" />
            </Array>
          </mxGeometry>
        </mxCell>
        <mxCell id="ITfLsWVSqHhZjFc9txPf-81" value="" style="curved=1;startArrow=none;endArrow=block;exitX=0.5;exitY=0.98;entryX=1.01;entryY=0.33;rounded=0;" edge="1" parent="1" source="ITfLsWVSqHhZjFc9txPf-58" target="ITfLsWVSqHhZjFc9txPf-57">
          <mxGeometry relative="1" as="geometry">
            <Array as="points">
              <mxPoint x="992" y="1107" />
            </Array>
          </mxGeometry>
        </mxCell>
      </root>
    </mxGraphModel>
  </diagram>
</mxfile>
